<svg viewBox="0 0 32 32" fill="none" xmlns="http://www.w3.org/2000/svg"><path fill="currentColor" d="M16 2.66675C13.3629 2.66675 10.785 3.44873 8.59239 4.91382C6.39974 6.37891 4.69077 8.46129 3.6816 10.8976C2.67243 13.334 2.40839 16.0149 2.92286 18.6013C3.43733 21.1877 4.70721 23.5635 6.57191 25.4282C8.43661 27.2929 10.8124 28.5627 13.3988 29.0772C15.9852 29.5917 18.6661 29.3276 21.1024 28.3185C23.5388 27.3093 25.6212 25.6003 27.0863 23.4077C28.5513 21.215 29.3333 18.6372 29.3333 16.0001C29.3333 14.2491 28.9885 12.5153 28.3184 10.8976C27.6483 9.27996 26.6662 7.81011 25.4281 6.57199C24.19 5.33388 22.7201 4.35175 21.1024 3.68169C19.4848 3.01162 17.751 2.66675 16 2.66675ZM16 26.6667C13.171 26.6667 10.4579 25.5429 8.45752 23.5426C6.45714 21.5422 5.33333 18.8291 5.33333 16.0001C5.33038 13.6312 6.12402 11.3301 7.58666 9.46675L22.5333 24.4134C20.6699 25.8761 18.3689 26.6697 16 26.6667ZM24.4133 22.5334L9.46666 7.58675C11.3301 6.1241 13.6311 5.33047 16 5.33341C18.829 5.33341 21.5421 6.45722 23.5425 8.45761C25.5429 10.458 26.6667 13.1711 26.6667 16.0001C26.6696 18.369 25.876 20.67 24.4133 22.5334Z"></path></svg>