<svg viewBox="0 0 32 32" fill="none" xmlns="http://www.w3.org/2000/svg"><path fill="currentColor" d="M19.6267 11.7201L13.9067 17.4534L11.7067 15.2534C11.5871 15.1138 11.44 15.0005 11.2746 14.9204C11.1092 14.8404 10.929 14.7954 10.7454 14.7884C10.5618 14.7813 10.3787 14.8122 10.2076 14.8792C10.0365 14.9463 9.88107 15.0479 9.75113 15.1779C9.62119 15.3078 9.51951 15.4632 9.45248 15.6343C9.38545 15.8054 9.35451 15.9885 9.3616 16.1722C9.36869 16.3558 9.41366 16.536 9.4937 16.7014C9.57373 16.8668 9.68709 17.0139 9.82666 17.1334L12.96 20.2801C13.0846 20.4037 13.2323 20.5014 13.3948 20.5678C13.5572 20.6341 13.7312 20.6678 13.9067 20.6667C14.2564 20.6653 14.5916 20.5264 14.84 20.2801L21.5067 13.6134C21.6316 13.4895 21.7308 13.342 21.7985 13.1795C21.8662 13.017 21.9011 12.8428 21.9011 12.6667C21.9011 12.4907 21.8662 12.3165 21.7985 12.154C21.7308 11.9915 21.6316 11.844 21.5067 11.7201C21.2568 11.4717 20.9189 11.3324 20.5667 11.3324C20.2144 11.3324 19.8765 11.4717 19.6267 11.7201ZM16 2.66675C13.3629 2.66675 10.785 3.44873 8.59239 4.91382C6.39974 6.37891 4.69077 8.46129 3.6816 10.8976C2.67243 13.334 2.40839 16.0149 2.92286 18.6013C3.43733 21.1877 4.70721 23.5635 6.57191 25.4282C8.43661 27.2929 10.8124 28.5627 13.3988 29.0772C15.9852 29.5917 18.6661 29.3276 21.1024 28.3185C23.5388 27.3093 25.6212 25.6003 27.0863 23.4077C28.5513 21.215 29.3333 18.6372 29.3333 16.0001C29.3333 14.2491 28.9885 12.5153 28.3184 10.8976C27.6483 9.27996 26.6662 7.81011 25.4281 6.57199C24.19 5.33388 22.7201 4.35175 21.1024 3.68169C19.4848 3.01162 17.751 2.66675 16 2.66675ZM16 26.6667C13.8903 26.6667 11.828 26.0412 10.0739 24.8691C8.31979 23.697 6.95262 22.0311 6.14528 20.082C5.33795 18.133 5.12671 15.9882 5.53829 13.9191C5.94986 11.85 6.96576 9.94937 8.45752 8.45761C9.94928 6.96585 11.8499 5.94995 13.919 5.53837C15.9882 5.1268 18.1329 5.33803 20.082 6.14537C22.031 6.9527 23.6969 8.31987 24.869 10.074C26.0411 11.8281 26.6667 13.8904 26.6667 16.0001C26.6667 18.8291 25.5429 21.5422 23.5425 23.5426C21.5421 25.5429 18.829 26.6667 16 26.6667Z"></path></svg>